HIERARCHY
ROOT Hips
{
	OFFSET -32.860001 56.121803 44.745396
	CHANNELS 6 Xposition Yposition Zposition Zrotation Xrotation Yrotation
	JOINT Chest
	{
		OFFSET -0.637402 0.831600 5.390099
		CHANNELS 6 Xposition Yposition Zposition Zrotation Xrotation Yrotation
		JOINT Chest2
		{
			OFFSET 0.000000 0.000000 4.429901
			CHANNELS 6 Xposition Yposition Zposition Zrotation Xrotation Yrotation
			JOINT Neck
			{
				OFFSET 0.000000 0.000000 10.301395
				CHANNELS 6 Xposition Yposition Zposition Zrotation Xrotation Yrotation
				JOINT Head
				{
					OFFSET 0.000000 0.000000 2.173897
					CHANNELS 6 Xposition Yposition Zposition Zrotation Xrotation Yrotation
					End Site
					{
						OFFSET 0.000000 0.000000 8.298004
					}
				}
			}
			JOINT LeftCollar
			{
				OFFSET 2.142401 -0.572701 5.717800
				CHANNELS 6 Xposition Yposition Zposition Zrotation Xrotation Yrotation
				JOINT LeftShoulder
				{
					OFFSET 5.674000 0.000000 0.000000
					CHANNELS 6 Xposition Yposition Zposition Zrotation Xrotation Yrotation
					JOINT LeftElbow
					{
						OFFSET 0.000000 0.000000 -12.238701
						CHANNELS 6 Xposition Yposition Zposition Zrotation Xrotation Yrotation
						JOINT LeftWrist
						{
							OFFSET 0.000000 0.000000 -10.253700
							CHANNELS 6 Xposition Yposition Zposition Zrotation Xrotation Yrotation
							End Site
							{
								OFFSET 0.000000 0.000000 -2.173901
							}
						}
					}
				}
			}
			JOINT RightCollar
			{
				OFFSET -2.882599 -1.580101 6.695801
				CHANNELS 6 Xposition Yposition Zposition Zrotation Xrotation Yrotation
				JOINT RightShoulder
				{
					OFFSET -4.235600 0.000000 0.000000
					CHANNELS 6 Xposition Yposition Zposition Zrotation Xrotation Yrotation
					JOINT RightElbow
					{
						OFFSET 0.000000 0.000000 -10.709900
						CHANNELS 6 Xposition Yposition Zposition Zrotation Xrotation Yrotation
						JOINT RightWrist
						{
							OFFSET 0.000000 0.000000 -11.716801
							CHANNELS 6 Xposition Yposition Zposition Zrotation Xrotation Yrotation
							End Site
							{
								OFFSET 0.000000 0.000000 -2.173901
							}
						}
					}
				}
			}
		}
	}
	JOINT LeftHip
	{
		OFFSET 2.279499 0.210400 -2.475502
		CHANNELS 6 Xposition Yposition Zposition Zrotation Xrotation Yrotation
		JOINT LeftKnee
		{
			OFFSET 0.000000 -0.000004 -20.742800
			CHANNELS 6 Xposition Yposition Zposition Zrotation Xrotation Yrotation
			JOINT LeftAnkle
			{
				OFFSET 0.000000 0.000000 -16.666000
				CHANNELS 6 Xposition Yposition Zposition Zrotation Xrotation Yrotation
				End Site
				{
					OFFSET 0.000000 -8.310898 0.000000
				}
			}
		}
	}
	JOINT RightHip
	{
		OFFSET -1.961899 0.232300 -2.727402
		CHANNELS 6 Xposition Yposition Zposition Zrotation Xrotation Yrotation
		JOINT RightKnee
		{
			OFFSET 0.000000 -0.000004 -20.526800
			CHANNELS 6 Xposition Yposition Zposition Zrotation Xrotation Yrotation
			JOINT RightAnkle
			{
				OFFSET 0.000000 0.000000 -16.867300
				CHANNELS 6 Xposition Yposition Zposition Zrotation Xrotation Yrotation
				End Site
				{
					OFFSET 0.000000 -7.186401 0.000000
				}
			}
		}
	}
}
MOTION
Frames: 10
Frame Time: 0.041667
12.450405 33.833809 44.875896 1079.686688 -1.266467 -5.609190 -0.637400 0.831601 5.390091 -0.514112 9.013089 4.753724 -0.000003 0.000008 4.429898 -1.693175 -1.255045 -0.363058 -0.000001 -0.000000 10.301387 362.426421 13.627890 -1.903732 -0.000002 0.000007 2.173905 -358.809918 1.514441 -0.298821 2.142398 -0.572702 5.717802 -12.415073 -5.572404 5.930022 5.674000 0.000001 0.000005 119.745429 -186.384934 164.533697 0.000001 0.000003 -12.238702 -208.503641 -188.613174 -179.698835 -0.000000 0.000002 -10.253698 53.272450 -192.915073 151.523826 -2.882600 -1.580101 6.695790 5.847332 1.988298 -6.201102 -4.235600 0.000000 -0.000007 -190.330079 197.847535 -160.897018 0.000001 0.000007 -10.709905 170.735072 -175.439583 178.365186 -0.000010 0.000010 -11.716806 51.589361 2.766408 -18.069337 2.279503 0.210404 -2.475499 378.093208 -13.297284 4.798879 -0.000002 -0.000003 -20.742802 -33.395728 37.694120 11.406028 -0.000001 -0.000000 -16.666004 20.464326 16.835187 12.475411 -1.961891 0.232299 -2.727405 -759.270384 -24.945987 3.768107 0.000002 0.000001 -20.526798 926.942785 132.384024 -180.229158 -0.000000 -0.000003 -16.867302 -364.072442 19.279677 1.529177
12.874004 33.750706 44.873390 1079.486154 -1.646574 -5.197124 -0.637408 0.831604 5.390100 -0.287469 9.352844 4.473589 -0.000000 0.000001 4.429902 -1.928846 -1.290352 -0.377455 -0.000007 -0.000004 10.301399 361.764876 13.804076 -2.133778 -0.000003 -0.000000 2.173899 -358.803798 1.610598 -0.261985 2.142395 -0.572700 5.717810 -12.249715 -5.404372 5.711719 5.674000 0.000001 -0.000001 113.666772 -188.400537 164.509245 0.000001 0.000002 -12.238696 -206.823305 -187.780396 -180.076257 0.000003 0.000006 -10.253698 59.094906 -192.327813 149.386469 -2.882602 -1.580104 6.695797 5.667789 1.867026 -5.751485 -4.235595 0.000002 0.000001 -189.450596 199.109180 -159.024276 -0.000002 0.000009 -10.709905 168.451234 -174.939422 177.847758 0.000001 -0.000004 -11.716804 56.116271 1.749077 -20.355938 2.279497 0.210406 -2.475496 378.468322 -13.317162 5.130649 -0.000002 -0.000010 -20.742805 -35.809114 38.707519 12.803960 -0.000002 0.000000 -16.666002 22.158906 16.176352 12.795289 -1.961894 0.232305 -2.727405 -758.677141 -24.366753 4.643937 -0.000001 0.000002 -20.526800 927.156324 133.096741 -180.607728 -0.000000 -0.000001 -16.867300 -363.891005 19.946871 1.278929
13.322407 33.668499 44.861889 1079.182238 -1.987398 -4.729619 -0.637404 0.831597 5.390087 0.068456 9.640772 4.039266 0.000001 0.000010 4.429897 -2.352675 -1.322301 -0.405421 -0.000000 -0.000004 10.301399 360.334553 14.119585 -1.717241 -0.000006 -0.000004 2.173892 -358.273611 1.659071 -0.482510 2.142397 -0.572694 5.717809 -11.998675 -5.179538 5.415487 5.674001 0.000006 0.000001 108.413844 -190.791772 164.253796 -0.000000 -0.000000 -12.238707 -204.922955 -186.785333 -180.256533 -0.000000 -0.000002 -10.253702 64.481767 -191.705310 147.536389 -2.882600 -1.580100 6.695804 5.467008 1.722410 -5.306924 -4.235595 0.000001 -0.000016 -188.811728 200.521554 -157.020735 0.000003 -0.000002 -10.709903 165.789264 -174.435395 177.264897 -0.000005 0.000001 -11.716799 60.710546 1.169425 -21.139854 2.279504 0.210401 -2.475499 378.791636 -13.422475 5.455866 0.000003 -0.000006 -20.742805 -38.748756 39.723045 14.642215 0.000000 -0.000001 -16.666004 24.175116 15.414941 13.248509 -1.961895 0.232296 -2.727406 -758.455460 -23.848657 5.310376 0.000002 -0.000006 -20.526802 927.831803 133.841751 -181.047141 -0.000001 0.000001 -16.867302 -363.618371 20.658588 0.985441
13.800514 33.585091 44.842789 1078.763356 -2.265681 -4.161886 -0.637400 0.831599 5.390097 0.578645 9.830335 3.362392 -0.000004 -0.000003 4.429901 -2.967130 -1.331893 -0.433215 0.000003 -0.000001 10.301407 360.480364 14.347471 -2.325755 0.000000 0.000002 2.173894 -359.469441 1.868950 0.136620 2.142398 -0.572698 5.717808 -11.692305 -4.882046 5.018929 5.674004 -0.000003 0.000006 103.988394 -193.585456 163.824478 0.000003 -0.000003 -12.238703 -202.643790 -185.642697 -180.232614 -0.000004 0.000010 -10.253701 69.340941 -190.963087 146.103333 -2.882599 -1.580099 6.695797 5.249073 1.588441 -4.498167 -4.235600 0.000002 0.000002 -188.390879 202.004033 -155.401147 -0.000001 0.000004 -10.709897 163.009322 -173.978865 176.820333 -0.000004 0.000010 -11.716802 65.065065 0.702542 -21.881898 2.279505 0.210404 -2.475499 379.053697 -13.628842 5.738567 0.000003 -0.000006 -20.742798 -42.092550 40.665345 16.871718 0.000001 0.000000 -16.666004 26.656323 14.672896 13.889629 -1.961885 0.232295 -2.727406 -758.330987 -23.369228 5.883685 0.000000 -0.000003 -20.526798 928.754152 134.689691 -181.598269 -0.000001 0.000000 -16.867300 -363.211210 21.446664 0.559015
14.307114 33.500092 44.817093 1078.221312 -2.491853 -3.549956 -0.637409 0.831596 5.390100 1.237319 9.934080 2.507057 0.000001 0.000009 4.429901 -3.738215 -1.316954 -0.470650 -0.000002 -0.000002 10.301396 358.645256 14.902107 -1.333564 -0.000002 0.000000 2.173907 -358.860653 1.880775 -0.166153 2.142397 -0.572701 5.717803 -11.336004 -4.511111 4.491176 5.673999 0.000007 0.000004 100.495442 -196.742219 163.207179 0.000000 0.000003 -12.238701 -200.441354 -184.449559 -179.986959 -0.000001 0.000001 -10.253698 73.895489 -190.082211 144.958826 -2.882606 -1.580097 6.695798 5.133015 1.449875 -4.217580 -4.235600 0.000001 -0.000010 -187.850160 203.639604 -153.346175 0.000005 0.000005 -10.709908 160.137637 -173.551132 176.308137 -0.000007 0.000008 -11.716805 68.805632 0.433814 -21.657145 2.279501 0.210396 -2.475496 379.236500 -13.892494 6.023331 0.000002 -0.000009 -20.742798 -45.825594 41.440677 19.502360 0.000002 0.000000 -16.666002 29.440465 13.608952 14.727507 -1.961897 0.232294 -2.727406 -758.459832 -22.998326 6.338102 0.000002 -0.000003 -20.526798 924.807286 135.838652 -178.942705 0.000005 0.000005 -16.867302 -359.050259 22.532560 0.358270
14.838810 33.412907 44.785488 1077.558074 -2.650447 -2.920464 -0.637402 0.831589 5.390098 2.035813 9.918514 1.504355 -0.000001 0.000005 4.429893 -4.625122 -1.186098 -0.502277 0.000000 -0.000002 10.301388 357.267388 15.305286 -0.526036 -0.000001 -0.000000 2.173897 -358.917070 2.033485 -0.152579 2.142399 -0.572706 5.717794 -10.932564 -4.137664 3.796590 5.674003 0.000003 0.000010 98.016992 -200.232692 162.346179 -0.000001 0.000001 -12.238701 -198.477975 -183.264890 -179.564253 0.000002 -0.000002 -10.253699 78.204341 -189.007126 144.068729 -2.882604 -1.580105 6.695791 5.030381 1.273352 -4.016073 -4.235600 -0.000003 -0.000004 -187.281779 205.361932 -151.489306 -0.000002 0.000008 -10.709900 157.125715 -173.214280 175.839505 -0.000009 0.000000 -11.716798 72.046591 0.604314 -20.465892 2.279498 0.210397 -2.475498 379.255734 -14.197652 6.285987 0.000004 -0.000005 -20.742800 -49.606701 41.966902 22.368291 -0.000003 0.000006 -16.666000 32.389146 12.769330 15.741255 -1.961893 0.232297 -2.727406 -758.882976 -22.714238 6.704388 0.000006 -0.000003 -20.526800 923.293388 137.017829 -177.838100 0.000001 0.000007 -16.867302 -356.160132 23.467890 -0.138612
15.390209 33.323597 44.750092 1076.731347 -2.735032 -2.288551 -0.637401 0.831599 5.390107 3.008445 9.769810 0.381115 0.000000 0.000002 4.429895 -5.578665 -1.113157 -0.538567 0.000003 -0.000001 10.301402 355.707701 15.837510 0.535874 -0.000001 0.000000 2.173903 -359.213527 2.144060 -0.003342 2.142402 -0.572697 5.717807 -9.706435 -0.220131 2.884988 5.674001 -0.000005 0.000008 97.059638 -203.504817 157.576890 0.000004 -0.000003 -12.238698 -196.829113 -182.161678 -179.038205 -0.000007 0.000003 -10.253701 82.291902 -187.774468 143.362256 -2.882598 -1.580097 6.695796 4.268662 0.927376 -4.028813 -4.235601 0.000002 -0.000011 -185.908201 206.815956 -149.596388 -0.000003 0.000011 -10.709908 154.098384 -173.071092 175.339248 -0.000008 0.000005 -11.716802 74.670319 1.052889 -18.966634 2.279504 0.210399 -2.475490 376.579147 -14.630914 5.902188 0.000001 -0.000007 -20.742790 -50.548557 42.154367 25.094501 -0.000004 -0.000005 -16.666000 35.359760 11.890715 16.869065 -1.961887 0.232299 -2.727390 -759.411468 -22.523440 7.013471 0.000000 -0.000001 -20.526796 921.505081 138.271729 -176.661641 -0.000003 0.000005 -16.867302 -352.954151 24.333363 -0.761724
15.957512 33.232803 44.712292 1075.740587 -2.758803 -1.736285 -0.637401 0.831596 5.390094 4.134164 9.511628 -0.754908 -0.000001 0.000007 4.429895 -6.538213 -1.026091 -0.567539 -0.000001 -0.000007 10.301394 353.967095 16.393105 1.820260 -0.000002 0.000005 2.173898 -359.095283 2.335050 -0.193354 2.142400 -0.572711 5.717805 -9.146323 0.177737 1.785707 5.674003 0.000004 0.000006 96.654089 -207.532129 156.150733 -0.000000 -0.000004 -12.238695 -195.409772 -181.163132 -178.463240 -0.000002 0.000001 -10.253699 86.998380 -186.021800 142.774572 -2.882604 -1.580102 6.695798 5.275629 0.976940 -3.836695 -4.235606 0.000007 -0.000004 -186.492715 208.561848 -148.622963 0.000001 0.000005 -10.709908 151.243379 -172.894668 174.914273 -0.000004 -0.000006 -11.716792 76.449645 2.626161 -15.007693 2.279502 0.210401 -2.475502 377.470323 -14.976301 6.404023 0.000000 -0.000004 -20.742805 -54.751794 42.278611 28.044986 -0.000006 -0.000003 -16.666000 38.177971 11.075451 18.032820 -1.961893 0.232301 -2.727402 -759.608342 -22.340953 7.463220 0.000001 0.000001 -20.526806 919.395372 139.576924 -175.629722 0.000005 0.000006 -16.867298 -349.908870 25.090422 -1.477338
16.534405 33.141407 44.673088 1074.527983 -2.718211 -1.232040 -0.637405 0.831594 5.390099 5.471796 9.141261 -1.922976 0.000004 0.000001 4.429905 -7.448621 -0.937148 -0.608642 -0.000001 -0.000004 10.301401 352.045107 16.940517 3.343407 -0.000003 -0.000005 2.173899 -359.216096 2.491845 -0.278874 2.142397 -0.572707 5.717803 -8.561630 0.589504 0.546013 5.673997 0.000005 0.000002 96.946257 -211.841117 154.393790 0.000003 0.000003 -12.238688 -194.406076 -180.355352 -177.932275 0.000000 0.000002 -10.253704 91.199766 -184.219928 142.231668 -2.882601 -1.580102 6.695798 5.209129 0.819112 -3.973580 -4.235603 0.000010 -0.000010 -185.870894 209.863286 -147.738850 0.000002 0.000000 -10.709903 148.724801 -172.793022 174.524215 -0.000010 0.000005 -11.716802 77.512245 4.483931 -10.597996 2.279494 0.210395 -2.475502 378.603861 -15.313320 6.977500 0.000000 -0.000005 -20.742805 -58.754483 42.183887 30.860116 0.000002 -0.000002 -16.666000 40.883682 10.362093 19.293413 -1.961891 0.232286 -2.727405 -759.997826 -22.306554 7.788483 0.000000 -0.000003 -20.526802 917.307410 140.690887 -174.695503 0.000000 0.000004 -16.867304 -346.853153 25.642789 -2.638503
17.117104 33.050201 44.634693 1073.125226 -2.607846 -0.818577 -0.637404 0.831604 5.390102 6.978789 8.654028 -3.070491 0.000001 -0.000001 4.429900 -8.304364 -0.855106 -0.597501 -0.000001 0.000005 10.301391 350.039163 17.456386 5.036106 -0.000002 0.000005 2.173909 -359.350978 2.635879 -0.447533 2.142400 -0.572696 5.717799 -7.806984 0.986713 -0.655151 5.674000 -0.000002 0.000004 97.877506 -216.613371 152.156875 0.000000 -0.000000 -12.238703 -193.561892 -179.756236 -177.482575 -0.000001 0.000002 -10.253700 95.303310 -182.150777 141.926468 -2.882599 -1.580094 6.695795 5.508225 0.793879 -4.186878 -4.235597 0.000001 -0.000015 -185.558823 211.044390 -147.365867 0.000003 0.000009 -10.709906 146.640678 -172.808390 174.238918 -0.000005 -0.000000 -11.716799 77.774538 6.623721 -5.235127 2.279496 0.210405 -2.475492 379.961894 -15.624365 7.675040 0.000000 -0.000004 -20.742794 -62.383048 41.940838 33.385217 -0.000006 -0.000000 -16.666002 43.232096 9.778449 20.517651 -1.961898 0.232306 -2.727395 -760.457143 -22.401868 8.021915 0.000001 -0.000001 -20.526808 915.350698 141.499813 -173.949660 0.000002 0.000006 -16.867304 -344.977173 26.107032 -2.349082
